<?xml version="1.0" encoding="utf-8"?>
<!-- Generator: Adobe Illustrator 17.0.0, SVG Export Plug-In . SVG Version: 6.00 Build 0)  -->
<!DOCTYPE svg PUBLIC "-//W3C//DTD SVG 1.1//EN" "http://www.w3.org/Graphics/SVG/1.1/DTD/svg11.dtd">
<svg version="1.1" id="Layer_1" xmlns="http://www.w3.org/2000/svg" xmlns:xlink="http://www.w3.org/1999/xlink" x="0px" y="0px"
	 width="283.46px" height="283.46px" viewBox="0 0 283.46 283.46" enable-background="new 0 0 283.46 283.46" xml:space="preserve">
<rect y="141.73" fill="#FFFFFF" stroke="#231F20" stroke-width="2.0313" stroke-miterlimit="10" width="141.732" height="141.732"/>
<line fill="none" stroke="#231F20" stroke-width="2.0313" stroke-miterlimit="10" x1="0" y1="283.462" x2="0" y2="0"/>
<line fill="none" stroke="#231F20" stroke-width="2.0313" stroke-miterlimit="10" x1="0" y1="283.462" x2="283.46" y2="283.462"/>
<g>
	<path d="M37.392,34.569h6.336v51.125h-6.336V34.569z"/>
	<path d="M85.922,67.98c0,12.889-8.929,18.505-17.354,18.505c-9.433,0-16.706-6.913-16.706-17.93
		c0-11.665,7.633-18.505,17.281-18.505C79.153,50.051,85.922,57.323,85.922,67.98z M58.272,68.34
		c0,7.633,4.392,13.393,10.584,13.393c6.049,0,10.585-5.688,10.585-13.537c0-5.904-2.952-13.393-10.441-13.393
		C61.512,54.803,58.272,61.716,58.272,68.34z"/>
	<path d="M93.911,61.716c0-4.104-0.072-7.633-0.288-10.873h5.544l0.216,6.841h0.288c1.584-4.681,5.4-7.633,9.649-7.633
		c0.72,0,1.224,0.072,1.8,0.216v5.977c-0.648-0.144-1.296-0.216-2.16-0.216c-4.464,0-7.633,3.384-8.497,8.137
		c-0.144,0.864-0.288,1.872-0.288,2.952v18.578h-6.265V61.716z"/>
	<path d="M120.263,69.42c0.144,8.569,5.617,12.097,11.953,12.097c4.537,0,7.272-0.792,9.649-1.8l1.08,4.537
		c-2.232,1.008-6.049,2.16-11.593,2.16c-10.729,0-17.137-7.057-17.137-17.57c0-10.513,6.192-18.793,16.345-18.793
		c11.377,0,14.401,10.009,14.401,16.417c0,1.296-0.144,2.304-0.216,2.952H120.263z M138.841,64.884
		c0.072-4.033-1.656-10.297-8.785-10.297c-6.409,0-9.217,5.905-9.721,10.297H138.841z"/>
	<path d="M152.807,60.276c0-3.601-0.072-6.553-0.288-9.433h5.544l0.288,5.617h0.216c1.944-3.313,5.185-6.409,10.945-6.409
		c4.752,0,8.353,2.88,9.865,6.984h0.144c1.08-1.944,2.448-3.456,3.889-4.536c2.088-1.584,4.393-2.448,7.704-2.448
		c4.608,0,11.449,3.024,11.449,15.121v20.522h-6.192V65.964c0-6.697-2.448-10.729-7.561-10.729c-3.601,0-6.409,2.664-7.489,5.76
		c-0.288,0.864-0.504,2.016-0.504,3.168v21.53h-6.192V64.812c0-5.544-2.448-9.577-7.272-9.577c-3.96,0-6.841,3.168-7.849,6.336
		c-0.36,0.936-0.504,2.016-0.504,3.096v21.026h-6.192V60.276z"/>
</g>
</svg>
